<svg xmlns="http://www.w3.org/2000/svg" xmlns:xlink="http://www.w3.org/1999/xlink" width="99.466" height="69.428" viewBox="0 0 99.466 69.428">
  <defs>
    <clipPath id="clip-path">
      <path id="Caminho_6" data-name="Caminho 6" d="M0-69.894H99.466v-69.428H0Z" transform="translate(0 139.322)" fill="none"/>
    </clipPath>
  </defs>
  <g id="Grupo_10622" data-name="Grupo 10622" transform="translate(0 0)" style="mix-blend-mode: normal;isolation: isolate">
    <g id="Grupo_6" data-name="Grupo 6" transform="translate(0 0)" clip-path="url(#clip-path)">
      <g id="Grupo_1" data-name="Grupo 1" transform="translate(37.093 17.355)">
        <path id="Caminho_1" data-name="Caminho 1" d="M-5.009-10.052A4.974,4.974,0,0,0,0-15.028a5,5,0,0,0-5.009-5.009,4.974,4.974,0,0,0-4.976,5.009,4.946,4.946,0,0,0,4.976,4.976" transform="translate(9.985 20.037)" fill="#0f2b92"/>
      </g>
      <g id="Grupo_2" data-name="Grupo 2" transform="translate(51.68 46.797)">
        <path id="Caminho_2" data-name="Caminho 2" d="M-4.639,0A5.018,5.018,0,0,0-9.248,3.072H-.064A5.059,5.059,0,0,0-4.639,0" transform="translate(9.248)" fill="#0f2b92"/>
      </g>
      <g id="Grupo_3" data-name="Grupo 3" transform="translate(77.797 46.83)">
        <path id="Caminho_3" data-name="Caminho 3" d="M-5.043-10.052A4.974,4.974,0,0,0-.034-15.028a5,5,0,0,0-5.009-5.009,5,5,0,0,0-5.009,5.009,4.974,4.974,0,0,0,5.009,4.976" transform="translate(10.052 20.037)" fill="#0f2b92"/>
      </g>
      <g id="Grupo_4" data-name="Grupo 4" transform="translate(87.003 19.701)">
        <path id="Caminho_4" data-name="Caminho 4" d="M-2.639,0A2.62,2.62,0,0,0-5.26,2.639,2.605,2.605,0,0,0-2.639,5.26,2.62,2.62,0,0,0,0,2.639,2.635,2.635,0,0,0-2.639,0" transform="translate(5.26)" fill="#0f2b92"/>
      </g>
      <g id="Grupo_5" data-name="Grupo 5" transform="translate(0 0)">
        <path id="Caminho_5" data-name="Caminho 5" d="M-67.758-12.7a4.263,4.263,0,0,0-.28-1.522,7.56,7.56,0,0,0,.847-3.487,7.613,7.613,0,0,0-7.6-7.6,7.612,7.612,0,0,0-7.316,5.558c-.1-.006-.2-.015-.3-.015h-5.577a4.263,4.263,0,0,0-3.634,2.032Q-92.3-17.8-93-17.8a14.707,14.707,0,0,0-8.382,2.614,4.247,4.247,0,0,0-.664-.507l-4.809-2.972a4.243,4.243,0,0,0-2.238-.638,4.263,4.263,0,0,0-3.631,2.022l-4.821,7.8-4.822-7.8A4.261,4.261,0,0,0-126-19.3a4.242,4.242,0,0,0-2.238.638l-4.809,2.972a4.265,4.265,0,0,0-1.909,2.648,4.265,4.265,0,0,0,.524,3.222l13.171,21.3L-125,13.151a4.264,4.264,0,0,0-2.166,5.608l9.484,21.606a4.265,4.265,0,0,0,3.9,2.551h0a4.264,4.264,0,0,0,3.9-2.554l3.04-6.941,3.039,6.941a4.265,4.265,0,0,0,3.9,2.554h0a4.265,4.265,0,0,0,3.9-2.551L-93,33.571A14.841,14.841,0,0,0-78.809,44.117h.835a4.264,4.264,0,0,0,4.265-4.265V34.4h2.745a4.244,4.244,0,0,0,1.218,2.612l3.874,3.907a4.266,4.266,0,0,0,3.019,1.262h.009a4.265,4.265,0,0,0,3.016-1.249l1.078-1.078a14.787,14.787,0,0,0,6.492,1.492A14.868,14.868,0,0,0-37.408,26.495,14.851,14.851,0,0,0-52.259,11.678q-.374,0-.744.018V9.8c0-.023,0-.045,0-.068a4.267,4.267,0,0,0,1.254-.245A4.264,4.264,0,0,0-49,6.185a9.769,9.769,0,0,0,3.426.667A4.247,4.247,0,0,0-42.8,7.873h2.938A4.265,4.265,0,0,0-35.6,3.609V-9.586a4.264,4.264,0,0,0-4.265-4.265H-42.8a4.249,4.249,0,0,0-2.79,1.039,9.747,9.747,0,0,0-4.9,1.407,4.245,4.245,0,0,0-2.7-.968h-2.938a4.244,4.244,0,0,0-2.112.559l-1.941-2.341A4.265,4.265,0,0,0-63.474-15.7a4.266,4.266,0,0,0-1.446.253,4.265,4.265,0,0,0-2.818,4.012Zm4.284,1.265,7.336,8.849V-8.108h2.323a9.79,9.79,0,0,0-1.45,5.137A9.772,9.772,0,0,0-53.2,3.043v2.43l-7.336-8.849V2.148h-2.938Zm-8.549,18.2H-77.6V-12.7h5.577Zm-2.772-27.817a3.327,3.327,0,0,1,3.339,3.339,3.349,3.349,0,0,1-3.339,3.34,3.328,3.328,0,0,1-3.339-3.34,3.307,3.307,0,0,1,3.339-3.339M-87.987-12.23V-15.5h5.577V9.543h-5.577V6.3A9.991,9.991,0,0,1-93,7.606,10.532,10.532,0,0,1-103.548-2.946a10.642,10.642,0,0,1,.378-2.81l2.513-4.064a4.239,4.239,0,0,0,.38-.789A10.492,10.492,0,0,1-93-13.532a9.991,9.991,0,0,1,5.009,1.3m-38-2.805,8.449,13.658,8.448-13.658,4.543,2.808a14.837,14.837,0,0,0-2.536,4.7L-117.542,9.376-130.8-12.063Zm26.108,53.686-6.946-15.862-6.946,15.862-9.484-21.606,5.009-2.238,4.475,10.219,6.946-15.862,6.946,15.862,4.475-10.219,5.009,2.238-.234.533a14.747,14.747,0,0,0-2.751,6.266Zm16.165-8.515a5.04,5.04,0,0,0,4.909,4.174h.835v5.543h-.835A10.532,10.532,0,0,1-89.361,29.3V26.495a10.7,10.7,0,0,1,.1-1.428l2.339-5.329a10.523,10.523,0,0,1,8.115-3.8A10.561,10.561,0,0,1-68.223,26.495v2.987l-.653.653Zm31.459-14.193A10.561,10.561,0,0,1-41.673,26.495,10.589,10.589,0,0,1-52.259,37.081a10.5,10.5,0,0,1-7.046-2.7l-3.54,3.54-3.792-3.824a4.272,4.272,0,0,0,2.465-2.63l1.327-1.327V9.8h5.577v7.447a9.993,9.993,0,0,1,5.009-1.3M-39.864,3.609H-42.8V1.9a5.26,5.26,0,0,1-2.639.686,5.539,5.539,0,0,1-3.494-1.233V-7.308a5.522,5.522,0,0,1,3.494-1.24,5.265,5.265,0,0,1,2.639.686V-9.586h2.938Z" transform="translate(135.064 25.311)" fill="#0f2b92"/>
      </g>
    </g>
    <g id="Grupo_7" data-name="Grupo 7" transform="translate(4.265 10.275)">
      <path id="Caminho_7" data-name="Caminho 7" d="M-13.346-13.75-4.9-27.408l4.809,2.972L-13.346-3-26.6-24.436l4.809-2.972Z" transform="translate(26.604 27.408)" fill="#ffac2d"/>
    </g>
    <g id="Grupo_10" data-name="Grupo 10" transform="translate(0 0)" clip-path="url(#clip-path)">
      <g id="Grupo_8" data-name="Grupo 8" transform="translate(31.516 9.808)">
        <path id="Caminho_8" data-name="Caminho 8" d="M-21.28,0V25.046h-5.577V21.806a9.991,9.991,0,0,1-5.009,1.3A10.532,10.532,0,0,1-42.419,12.556,10.561,10.561,0,0,1-31.866,1.97a9.991,9.991,0,0,1,5.009,1.3V0ZM-36.842,12.556a4.945,4.945,0,0,0,4.976,4.975,4.974,4.974,0,0,0,5.009-4.975,5,5,0,0,0-5.009-5.009,4.974,4.974,0,0,0-4.976,5.009" transform="translate(42.419)" fill="#ffac2d"/>
      </g>
      <g id="Grupo_9" data-name="Grupo 9" transform="translate(56.931 4.265)">
        <path id="Caminho_9" data-name="Caminho 9" d="M-3.362-6.723A3.328,3.328,0,0,1-6.7-10.063,3.307,3.307,0,0,1-3.362-13.4,3.327,3.327,0,0,1-.022-10.063,3.349,3.349,0,0,1-3.362-6.723M-.59,14.415H-6.167V-5.053H-.59Z" transform="translate(6.701 13.402)" fill="#ffac2d"/>
      </g>
    </g>
    <g id="Grupo_11" data-name="Grupo 11" transform="translate(11.805 34.474)">
      <path id="Caminho_11" data-name="Caminho 11" d="M-9.548-15.969-2.6-31.831,4.344-15.969,8.819-26.187l5.009,2.237L4.344-2.344-2.6-18.206-9.548-2.344-19.032-23.95l5.009-2.237Z" transform="translate(19.032 31.831)" fill="#ffac2d"/>
    </g>
    <g id="Grupo_14" data-name="Grupo 14" transform="translate(0 0)" clip-path="url(#clip-path)">
      <g id="Grupo_12" data-name="Grupo 12" transform="translate(45.703 41.253)">
        <path id="Caminho_12" data-name="Caminho 12" d="M-10.623-18.49h.835v5.543h-.835A10.532,10.532,0,0,1-21.176-23.5V-26.3A10.532,10.532,0,0,1-10.623-36.857,10.561,10.561,0,0,1-.037-26.3v3.64h-15.5a5.04,5.04,0,0,0,4.909,4.174m.033-12.824A5.016,5.016,0,0,0-15.2-28.241h9.184a5.059,5.059,0,0,0-4.575-3.073" transform="translate(21.176 36.857)" fill="#ffac2d"/>
      </g>
      <g id="Grupo_13" data-name="Grupo 13" transform="translate(68.346 35.109)">
        <path id="Caminho_13" data-name="Caminho 13" d="M-14.556-6.186A10.561,10.561,0,0,1-3.97,4.367,10.589,10.589,0,0,1-14.556,14.953a10.5,10.5,0,0,1-7.046-2.7l-3.54,3.54-3.874-3.907,3.874-3.874V-12.33h5.577v7.447a9.986,9.986,0,0,1,5.009-1.3M-19.566,4.4a4.974,4.974,0,0,0,5.009,4.976A4.974,4.974,0,0,0-9.547,4.4,5,5,0,0,0-14.556-.609,5,5,0,0,0-19.566,4.4" transform="translate(29.016 12.33)" fill="#ffac2d"/>
      </g>
    </g>
    <g id="Grupo_15" data-name="Grupo 15" transform="translate(71.591 13.877)">
      <path id="Caminho_15" data-name="Caminho 15" d="M-10.343-17.02l-7.336-8.849v5.524h-2.938V-33.926l7.336,8.849V-30.6h2.938Z" transform="translate(20.617 33.926)" fill="#ff611e"/>
    </g>
    <g id="Grupo_17" data-name="Grupo 17" transform="translate(0 0)" clip-path="url(#clip-path)">
      <g id="Grupo_16" data-name="Grupo 16" transform="translate(84.065 15.725)">
        <path id="Caminho_16" data-name="Caminho 16" d="M-11.211,0V13.194h-2.938V11.488a5.264,5.264,0,0,1-2.639.686,5.548,5.548,0,0,1-5.559-5.559,5.564,5.564,0,0,1,5.559-5.577,5.259,5.259,0,0,1,2.639.686V0Zm-8.2,6.615a2.605,2.605,0,0,0,2.621,2.621,2.62,2.62,0,0,0,2.639-2.621,2.635,2.635,0,0,0-2.639-2.639,2.621,2.621,0,0,0-2.621,2.639" transform="translate(22.347)" fill="#ff611e"/>
      </g>
    </g>
  </g>
</svg>
